<mxfile host="65bd71144e" pages="3">
    <diagram id="nYphtCpsgesnmXy8XPTw" name="Vue/Component 实例化">
        <mxGraphModel dx="2871" dy="903" grid="1" gridSize="10" guides="1" tooltips="1" connect="1" arrows="1" fold="1" page="1" pageScale="1" pageWidth="1169" pageHeight="827" math="0" shadow="0">
            <root>
                <mxCell id="0"/>
                <mxCell id="1" parent="0"/>
                <mxCell id="VDVIR2NOY_Hai55q-utt-70" style="edgeStyle=orthogonalEdgeStyle;rounded=0;orthogonalLoop=1;jettySize=auto;html=1;entryX=0;entryY=0.5;entryDx=0;entryDy=0;fontSize=16;fontColor=#46495D;strokeColor=#788AA3;" parent="1" source="VDVIR2NOY_Hai55q-utt-1" target="VDVIR2NOY_Hai55q-utt-26" edge="1">
                    <mxGeometry relative="1" as="geometry"/>
                </mxCell>
                <mxCell id="VDVIR2NOY_Hai55q-utt-1" value="new Vue" style="ellipse;whiteSpace=wrap;html=1;fontSize=18;fillColor=#B2C9AB;strokeColor=#788AA3;fontColor=#46495D;labelBorderColor=none;labelBackgroundColor=none;fontStyle=1" parent="1" vertex="1">
                    <mxGeometry x="10" y="30" width="100" height="80" as="geometry"/>
                </mxCell>
                <mxCell id="VDVIR2NOY_Hai55q-utt-15" value="&lt;meta charset=&quot;utf-8&quot; style=&quot;font-size: 18px;&quot;&gt;&lt;span style=&quot;color: rgb(0, 0, 0); font-family: helvetica; font-size: 18px; font-style: normal; letter-spacing: normal; text-align: center; text-indent: 0px; text-transform: none; word-spacing: 0px; display: inline; float: none;&quot;&gt;mount&lt;/span&gt;" style="rounded=1;whiteSpace=wrap;html=1;absoluteArcSize=1;arcSize=14;strokeWidth=2;fontSize=18;fillColor=#B2C9AB;strokeColor=#788AA3;fontColor=#46495D;labelBorderColor=none;labelBackgroundColor=none;fontStyle=1" parent="1" vertex="1">
                    <mxGeometry x="440" y="130" width="80" height="70" as="geometry"/>
                </mxCell>
                <mxCell id="VDVIR2NOY_Hai55q-utt-20" value="&lt;span style=&quot;color: rgb(0, 0, 0); font-family: helvetica; font-size: 18px; font-style: normal; letter-spacing: normal; text-align: center; text-indent: 0px; text-transform: none; word-spacing: 0px; display: inline; float: none;&quot;&gt;render&lt;/span&gt;" style="rounded=1;whiteSpace=wrap;html=1;absoluteArcSize=1;arcSize=14;strokeWidth=2;fontSize=18;fillColor=#B2C9AB;strokeColor=#788AA3;fontColor=#46495D;labelBorderColor=none;labelBackgroundColor=none;fontStyle=1" parent="1" vertex="1">
                    <mxGeometry x="640" y="130" width="90" height="70" as="geometry"/>
                </mxCell>
                <mxCell id="VDVIR2NOY_Hai55q-utt-22" value="&lt;span style=&quot;color: rgb(0, 0, 0); font-family: helvetica; font-size: 18px; font-style: normal; letter-spacing: normal; text-align: center; text-indent: 0px; text-transform: none; word-spacing: 0px; display: inline; float: none;&quot;&gt;update&lt;/span&gt;" style="rounded=1;whiteSpace=wrap;html=1;absoluteArcSize=1;arcSize=14;strokeWidth=2;fontSize=18;fillColor=#B2C9AB;strokeColor=#788AA3;fontColor=#46495D;labelBorderColor=none;labelBackgroundColor=none;fontStyle=1" parent="1" vertex="1">
                    <mxGeometry x="910" y="130" width="90" height="70" as="geometry"/>
                </mxCell>
                <mxCell id="VDVIR2NOY_Hai55q-utt-28" value="" style="edgeStyle=orthogonalEdgeStyle;rounded=0;orthogonalLoop=1;jettySize=auto;html=1;fontSize=16;strokeColor=#788AA3;fontColor=#46495D;" parent="1" source="VDVIR2NOY_Hai55q-utt-26" target="VDVIR2NOY_Hai55q-utt-15" edge="1">
                    <mxGeometry relative="1" as="geometry"/>
                </mxCell>
                <mxCell id="VDVIR2NOY_Hai55q-utt-26" value="&lt;font style=&quot;font-size: 18px;&quot;&gt;init&lt;/font&gt;" style="rounded=1;whiteSpace=wrap;html=1;absoluteArcSize=1;arcSize=14;strokeWidth=2;fontSize=18;fillColor=#B2C9AB;strokeColor=#788AA3;fontColor=#46495D;labelBorderColor=none;labelBackgroundColor=none;fontStyle=1" parent="1" vertex="1">
                    <mxGeometry x="270" y="130" width="100" height="70" as="geometry"/>
                </mxCell>
                <mxCell id="VDVIR2NOY_Hai55q-utt-29" value="compile template" style="whiteSpace=wrap;html=1;rounded=1;strokeWidth=2;arcSize=14;fontSize=16;fillColor=#B2C9AB;strokeColor=#788AA3;fontColor=#46495D;" parent="1" vertex="1">
                    <mxGeometry x="430" y="340" width="120" height="60" as="geometry"/>
                </mxCell>
                <mxCell id="VDVIR2NOY_Hai55q-utt-32" value="&lt;div style=&quot;font-family: menlo, monaco, &amp;quot;courier new&amp;quot;, monospace; line-height: 18px; font-size: 16px;&quot;&gt;&lt;span style=&quot;font-size: 16px;&quot;&gt;createElement&lt;/span&gt;&lt;/div&gt;" style="whiteSpace=wrap;html=1;rounded=1;strokeWidth=2;arcSize=14;fontSize=16;labelBorderColor=none;fillColor=#B2C9AB;strokeColor=#788AA3;fontColor=#46495D;" parent="1" vertex="1">
                    <mxGeometry x="680" y="300" width="130" height="60" as="geometry"/>
                </mxCell>
                <mxCell id="VDVIR2NOY_Hai55q-utt-56" style="edgeStyle=orthogonalEdgeStyle;rounded=0;orthogonalLoop=1;jettySize=auto;html=1;exitX=0.5;exitY=1;exitDx=0;exitDy=0;entryX=0;entryY=0.5;entryDx=0;entryDy=0;fontSize=16;strokeColor=#788AA3;fontColor=#46495D;" parent="1" source="VDVIR2NOY_Hai55q-utt-34" target="VDVIR2NOY_Hai55q-utt-22" edge="1">
                    <mxGeometry relative="1" as="geometry">
                        <mxPoint x="850" y="230" as="targetPoint"/>
                    </mxGeometry>
                </mxCell>
                <mxCell id="VDVIR2NOY_Hai55q-utt-34" value="vnode" style="whiteSpace=wrap;html=1;rounded=1;strokeWidth=2;arcSize=14;fontSize=16;fillColor=#B2C9AB;strokeColor=#788AA3;fontColor=#46495D;" parent="1" vertex="1">
                    <mxGeometry x="720" y="492.5" width="120" height="60" as="geometry"/>
                </mxCell>
                <mxCell id="VDVIR2NOY_Hai55q-utt-36" value="&lt;span style=&quot;color: rgb(0, 0, 0); font-family: helvetica; font-size: 18px; font-style: normal; letter-spacing: normal; text-align: center; text-indent: 0px; text-transform: none; word-spacing: 0px; display: inline; float: none;&quot;&gt;DOM&lt;/span&gt;" style="rounded=1;whiteSpace=wrap;html=1;absoluteArcSize=1;arcSize=14;strokeWidth=2;fontSize=18;fillColor=#B2C9AB;strokeColor=#788AA3;fontColor=#46495D;labelBorderColor=none;labelBackgroundColor=none;fontStyle=1" parent="1" vertex="1">
                    <mxGeometry x="1160" y="130" width="100" height="70" as="geometry"/>
                </mxCell>
                <mxCell id="VDVIR2NOY_Hai55q-utt-39" value="patch" style="whiteSpace=wrap;html=1;rounded=1;strokeWidth=2;arcSize=14;fontSize=16;fillColor=#B2C9AB;strokeColor=#788AA3;fontColor=#46495D;" parent="1" vertex="1">
                    <mxGeometry x="920" y="340" width="120" height="60" as="geometry"/>
                </mxCell>
                <mxCell id="VDVIR2NOY_Hai55q-utt-64" style="edgeStyle=orthogonalEdgeStyle;rounded=0;orthogonalLoop=1;jettySize=auto;html=1;entryX=0;entryY=0.5;entryDx=0;entryDy=0;fontSize=16;strokeColor=#788AA3;fontColor=#46495D;" parent="1" source="VDVIR2NOY_Hai55q-utt-41" target="VDVIR2NOY_Hai55q-utt-36" edge="1">
                    <mxGeometry relative="1" as="geometry"/>
                </mxCell>
                <mxCell id="VDVIR2NOY_Hai55q-utt-41" value="vnode.elem" style="whiteSpace=wrap;html=1;rounded=1;strokeWidth=2;arcSize=14;fontSize=16;fillColor=#B2C9AB;strokeColor=#788AA3;fontColor=#46495D;" parent="1" vertex="1">
                    <mxGeometry x="930" y="492.5" width="130" height="60" as="geometry"/>
                </mxCell>
                <mxCell id="VDVIR2NOY_Hai55q-utt-48" value="" style="edgeStyle=orthogonalEdgeStyle;rounded=0;orthogonalLoop=1;jettySize=auto;html=1;fontSize=16;strokeColor=#788AA3;fontColor=#46495D;" parent="1" source="VDVIR2NOY_Hai55q-utt-43" target="VDVIR2NOY_Hai55q-utt-47" edge="1">
                    <mxGeometry relative="1" as="geometry"/>
                </mxCell>
                <mxCell id="VDVIR2NOY_Hai55q-utt-43" value="Compoent options Object" style="ellipse;whiteSpace=wrap;html=1;fontSize=16;fillColor=#B2C9AB;strokeColor=#788AA3;fontColor=#46495D;" parent="1" vertex="1">
                    <mxGeometry x="50" y="650" width="130" height="80" as="geometry"/>
                </mxCell>
                <mxCell id="VDVIR2NOY_Hai55q-utt-50" value="" style="edgeStyle=orthogonalEdgeStyle;rounded=0;orthogonalLoop=1;jettySize=auto;html=1;fontSize=16;strokeColor=#788AA3;fontColor=#46495D;" parent="1" source="VDVIR2NOY_Hai55q-utt-47" target="VDVIR2NOY_Hai55q-utt-49" edge="1">
                    <mxGeometry relative="1" as="geometry"/>
                </mxCell>
                <mxCell id="VDVIR2NOY_Hai55q-utt-47" value="生成 Sub(VueComponent)" style="whiteSpace=wrap;html=1;fontSize=16;fillColor=#B2C9AB;strokeColor=#788AA3;fontColor=#46495D;" parent="1" vertex="1">
                    <mxGeometry x="30" y="495" width="170" height="90" as="geometry"/>
                </mxCell>
                <mxCell id="VDVIR2NOY_Hai55q-utt-72" style="edgeStyle=orthogonalEdgeStyle;rounded=0;orthogonalLoop=1;jettySize=auto;html=1;entryX=0;entryY=0.5;entryDx=0;entryDy=0;fontSize=16;fontColor=#46495D;strokeColor=#788AA3;" parent="1" source="VDVIR2NOY_Hai55q-utt-49" target="VDVIR2NOY_Hai55q-utt-26" edge="1">
                    <mxGeometry relative="1" as="geometry"/>
                </mxCell>
                <mxCell id="VDVIR2NOY_Hai55q-utt-49" value="new Sub(VueComponent)" style="whiteSpace=wrap;html=1;fontSize=18;fillColor=#B2C9AB;strokeColor=#788AA3;fontColor=#46495D;labelBorderColor=none;labelBackgroundColor=none;fontStyle=1" parent="1" vertex="1">
                    <mxGeometry x="30" y="350" width="170" height="80" as="geometry"/>
                </mxCell>
                <mxCell id="VDVIR2NOY_Hai55q-utt-52" value="" style="endArrow=classic;html=1;exitX=0.5;exitY=1;exitDx=0;exitDy=0;entryX=0.5;entryY=0;entryDx=0;entryDy=0;fontSize=16;strokeColor=#788AA3;fontColor=#46495D;" parent="1" source="VDVIR2NOY_Hai55q-utt-15" target="VDVIR2NOY_Hai55q-utt-29" edge="1">
                    <mxGeometry width="50" height="50" relative="1" as="geometry">
                        <mxPoint x="660" y="300" as="sourcePoint"/>
                        <mxPoint x="710" y="250" as="targetPoint"/>
                    </mxGeometry>
                </mxCell>
                <mxCell id="VDVIR2NOY_Hai55q-utt-57" value="" style="endArrow=classic;html=1;entryX=0.5;entryY=0;entryDx=0;entryDy=0;fontSize=16;exitX=0.5;exitY=1;exitDx=0;exitDy=0;strokeColor=#788AA3;fontColor=#46495D;" parent="1" source="VDVIR2NOY_Hai55q-utt-20" target="VDVIR2NOY_Hai55q-utt-32" edge="1">
                    <mxGeometry width="50" height="50" relative="1" as="geometry">
                        <mxPoint x="730" y="220" as="sourcePoint"/>
                        <mxPoint x="760" y="340" as="targetPoint"/>
                    </mxGeometry>
                </mxCell>
                <mxCell id="VDVIR2NOY_Hai55q-utt-59" value="" style="endArrow=classic;html=1;entryX=0.5;entryY=0;entryDx=0;entryDy=0;exitX=0.5;exitY=1;exitDx=0;exitDy=0;fontSize=16;strokeColor=#788AA3;fontColor=#46495D;" parent="1" source="VDVIR2NOY_Hai55q-utt-32" target="VDVIR2NOY_Hai55q-utt-34" edge="1">
                    <mxGeometry width="50" height="50" relative="1" as="geometry">
                        <mxPoint x="650" y="450" as="sourcePoint"/>
                        <mxPoint x="670" y="570" as="targetPoint"/>
                    </mxGeometry>
                </mxCell>
                <mxCell id="VDVIR2NOY_Hai55q-utt-61" value="" style="endArrow=classic;html=1;exitX=0.5;exitY=1;exitDx=0;exitDy=0;entryX=0.5;entryY=0;entryDx=0;entryDy=0;fontSize=16;strokeColor=#788AA3;fontColor=#46495D;" parent="1" source="VDVIR2NOY_Hai55q-utt-39" target="VDVIR2NOY_Hai55q-utt-41" edge="1">
                    <mxGeometry width="50" height="50" relative="1" as="geometry">
                        <mxPoint x="480.0000000000002" y="560" as="sourcePoint"/>
                        <mxPoint x="500.0000000000002" y="670" as="targetPoint"/>
                    </mxGeometry>
                </mxCell>
                <mxCell id="VDVIR2NOY_Hai55q-utt-62" value="" style="endArrow=classic;html=1;exitX=0.5;exitY=1;exitDx=0;exitDy=0;entryX=0.5;entryY=0;entryDx=0;entryDy=0;fontSize=16;strokeColor=#788AA3;fontColor=#46495D;" parent="1" source="VDVIR2NOY_Hai55q-utt-22" target="VDVIR2NOY_Hai55q-utt-39" edge="1">
                    <mxGeometry width="50" height="50" relative="1" as="geometry">
                        <mxPoint x="490.0000000000002" y="570" as="sourcePoint"/>
                        <mxPoint x="510.0000000000002" y="680" as="targetPoint"/>
                    </mxGeometry>
                </mxCell>
                <mxCell id="VDVIR2NOY_Hai55q-utt-79" style="edgeStyle=orthogonalEdgeStyle;curved=0;rounded=1;sketch=0;orthogonalLoop=1;jettySize=auto;html=1;entryX=0;entryY=0.5;entryDx=0;entryDy=0;strokeColor=#788AA3;fillColor=#B2C9AB;fontSize=18;fontColor=#46495D;exitX=1.006;exitY=0.597;exitDx=0;exitDy=0;exitPerimeter=0;" parent="1" source="VDVIR2NOY_Hai55q-utt-82" target="VDVIR2NOY_Hai55q-utt-20" edge="1">
                    <mxGeometry relative="1" as="geometry">
                        <mxPoint x="560" y="522.5999999999999" as="sourcePoint"/>
                    </mxGeometry>
                </mxCell>
                <mxCell id="VDVIR2NOY_Hai55q-utt-81" value="" style="endArrow=classic;html=1;exitX=0.5;exitY=1;exitDx=0;exitDy=0;entryX=0.5;entryY=0;entryDx=0;entryDy=0;fontSize=16;strokeColor=#788AA3;fontColor=#46495D;" parent="1" source="VDVIR2NOY_Hai55q-utt-29" edge="1">
                    <mxGeometry width="50" height="50" relative="1" as="geometry">
                        <mxPoint x="330" y="460" as="sourcePoint"/>
                        <mxPoint x="500" y="492.5" as="targetPoint"/>
                    </mxGeometry>
                </mxCell>
                <mxCell id="VDVIR2NOY_Hai55q-utt-82" value="&lt;span style=&quot;font-size: 16px&quot;&gt;new Watcher&lt;br&gt;init/update&lt;br&gt;&lt;/span&gt;" style="ellipse;whiteSpace=wrap;html=1;aspect=fixed;rounded=0;labelBackgroundColor=none;sketch=0;strokeColor=#788AA3;fillColor=#B2C9AB;fontSize=18;fontColor=#46495D;" parent="1" vertex="1">
                    <mxGeometry x="415" y="492.5" width="170" height="170" as="geometry"/>
                </mxCell>
                <mxCell id="VDVIR2NOY_Hai55q-utt-83" value="initPropsPrototypeProxy&lt;br&gt;initComputedPrototypeProxy" style="text;html=1;align=center;verticalAlign=middle;resizable=0;points=[];autosize=1;fontSize=18;fontColor=#46495D;" parent="1" vertex="1">
                    <mxGeometry x="130" y="600" width="240" height="50" as="geometry"/>
                </mxCell>
                <mxCell id="7fU9ExLNUblwZP_xEN50-5" value="VNodeData" style="rhombus;whiteSpace=wrap;html=1;rounded=1;fontSize=18;fontColor=#46495D;fontStyle=1;strokeColor=#788AA3;strokeWidth=2;fillColor=#B2C9AB;arcSize=14;" parent="1" vertex="1">
                    <mxGeometry x="630" y="414" width="140" height="60" as="geometry"/>
                </mxCell>
            </root>
        </mxGraphModel>
    </diagram>
    <diagram id="NxqcGE3m3rpp3zo9WThp" name="initOptions">
        <mxGraphModel dx="2233" dy="702" grid="1" gridSize="10" guides="1" tooltips="1" connect="1" arrows="1" fold="1" page="1" pageScale="1" pageWidth="1169" pageHeight="827" math="0" shadow="0">
            <root>
                <mxCell id="G2DLATC6TdOR3cQytXSb-0"/>
                <mxCell id="G2DLATC6TdOR3cQytXSb-1" parent="G2DLATC6TdOR3cQytXSb-0"/>
                <mxCell id="G2DLATC6TdOR3cQytXSb-2" value="&lt;meta charset=&quot;utf-8&quot; style=&quot;font-size: 18px;&quot;&gt;&lt;span style=&quot;color: rgb(0, 0, 0); font-family: helvetica; font-size: 18px; font-style: normal; letter-spacing: normal; text-align: center; text-indent: 0px; text-transform: none; word-spacing: 0px; display: inline; float: none;&quot;&gt;mount&lt;/span&gt;" style="rounded=1;whiteSpace=wrap;html=1;absoluteArcSize=1;arcSize=14;strokeWidth=2;fontSize=18;fillColor=#B2C9AB;strokeColor=#788AA3;fontColor=#46495D;labelBorderColor=none;labelBackgroundColor=none;fontStyle=1" parent="G2DLATC6TdOR3cQytXSb-1" vertex="1">
                    <mxGeometry x="790" y="80" width="80" height="70" as="geometry"/>
                </mxCell>
                <mxCell id="G2DLATC6TdOR3cQytXSb-6" value="" style="edgeStyle=orthogonalEdgeStyle;curved=0;rounded=1;sketch=0;orthogonalLoop=1;jettySize=auto;html=1;strokeColor=#788AA3;fillColor=#B2C9AB;fontSize=18;fontColor=#46495D;" parent="G2DLATC6TdOR3cQytXSb-1" source="G2DLATC6TdOR3cQytXSb-4" edge="1">
                    <mxGeometry relative="1" as="geometry">
                        <mxPoint x="240" y="240" as="targetPoint"/>
                    </mxGeometry>
                </mxCell>
                <mxCell id="G2DLATC6TdOR3cQytXSb-4" value="&lt;font style=&quot;font-size: 18px&quot;&gt;initState&lt;/font&gt;" style="rounded=1;whiteSpace=wrap;html=1;absoluteArcSize=1;arcSize=14;strokeWidth=2;fontSize=18;fillColor=#B2C9AB;strokeColor=#788AA3;fontColor=#46495D;labelBorderColor=none;labelBackgroundColor=none;fontStyle=1" parent="G2DLATC6TdOR3cQytXSb-1" vertex="1">
                    <mxGeometry x="150" y="120" width="100" height="70" as="geometry"/>
                </mxCell>
                <mxCell id="sWLdKDzeMx4VILPbVC6V-3" value="" style="edgeStyle=orthogonalEdgeStyle;rounded=0;orthogonalLoop=1;jettySize=auto;html=1;" parent="G2DLATC6TdOR3cQytXSb-1" source="sWLdKDzeMx4VILPbVC6V-0" target="sWLdKDzeMx4VILPbVC6V-2" edge="1">
                    <mxGeometry relative="1" as="geometry"/>
                </mxCell>
                <mxCell id="sWLdKDzeMx4VILPbVC6V-0" value="initProps" style="whiteSpace=wrap;html=1;rounded=1;fontSize=18;fontColor=#46495D;fontStyle=1;strokeColor=#788AA3;strokeWidth=2;fillColor=#B2C9AB;arcSize=14;" parent="G2DLATC6TdOR3cQytXSb-1" vertex="1">
                    <mxGeometry x="180" y="230" width="120" height="60" as="geometry"/>
                </mxCell>
                <mxCell id="sWLdKDzeMx4VILPbVC6V-5" value="" style="edgeStyle=orthogonalEdgeStyle;rounded=0;orthogonalLoop=1;jettySize=auto;html=1;" parent="G2DLATC6TdOR3cQytXSb-1" source="sWLdKDzeMx4VILPbVC6V-2" target="sWLdKDzeMx4VILPbVC6V-4" edge="1">
                    <mxGeometry relative="1" as="geometry"/>
                </mxCell>
                <mxCell id="sWLdKDzeMx4VILPbVC6V-2" value="initMethods" style="whiteSpace=wrap;html=1;rounded=1;fontSize=18;fontColor=#46495D;fontStyle=1;strokeColor=#788AA3;strokeWidth=2;fillColor=#B2C9AB;arcSize=14;" parent="G2DLATC6TdOR3cQytXSb-1" vertex="1">
                    <mxGeometry x="180" y="330" width="120" height="60" as="geometry"/>
                </mxCell>
                <mxCell id="sWLdKDzeMx4VILPbVC6V-7" value="" style="edgeStyle=orthogonalEdgeStyle;rounded=0;orthogonalLoop=1;jettySize=auto;html=1;" parent="G2DLATC6TdOR3cQytXSb-1" source="sWLdKDzeMx4VILPbVC6V-4" target="sWLdKDzeMx4VILPbVC6V-6" edge="1">
                    <mxGeometry relative="1" as="geometry"/>
                </mxCell>
                <mxCell id="sWLdKDzeMx4VILPbVC6V-4" value="initData" style="whiteSpace=wrap;html=1;rounded=1;fontSize=18;fontColor=#46495D;fontStyle=1;strokeColor=#788AA3;strokeWidth=2;fillColor=#B2C9AB;arcSize=14;" parent="G2DLATC6TdOR3cQytXSb-1" vertex="1">
                    <mxGeometry x="180" y="430" width="120" height="60" as="geometry"/>
                </mxCell>
                <mxCell id="sWLdKDzeMx4VILPbVC6V-9" value="" style="edgeStyle=orthogonalEdgeStyle;rounded=0;orthogonalLoop=1;jettySize=auto;html=1;" parent="G2DLATC6TdOR3cQytXSb-1" source="sWLdKDzeMx4VILPbVC6V-6" target="sWLdKDzeMx4VILPbVC6V-8" edge="1">
                    <mxGeometry relative="1" as="geometry"/>
                </mxCell>
                <mxCell id="sWLdKDzeMx4VILPbVC6V-6" value="initComputed" style="whiteSpace=wrap;html=1;rounded=1;fontSize=18;fontColor=#46495D;fontStyle=1;strokeColor=#788AA3;strokeWidth=2;fillColor=#B2C9AB;arcSize=14;" parent="G2DLATC6TdOR3cQytXSb-1" vertex="1">
                    <mxGeometry x="180" y="540" width="120" height="60" as="geometry"/>
                </mxCell>
                <mxCell id="sWLdKDzeMx4VILPbVC6V-8" value="initWatch" style="whiteSpace=wrap;html=1;rounded=1;fontSize=18;fontColor=#46495D;fontStyle=1;strokeColor=#788AA3;strokeWidth=2;fillColor=#B2C9AB;arcSize=14;" parent="G2DLATC6TdOR3cQytXSb-1" vertex="1">
                    <mxGeometry x="180" y="640" width="120" height="60" as="geometry"/>
                </mxCell>
                <mxCell id="sWLdKDzeMx4VILPbVC6V-12" style="edgeStyle=orthogonalEdgeStyle;rounded=0;orthogonalLoop=1;jettySize=auto;html=1;" parent="G2DLATC6TdOR3cQytXSb-1" source="sWLdKDzeMx4VILPbVC6V-8" edge="1">
                    <mxGeometry relative="1" as="geometry">
                        <mxPoint x="790" y="110" as="targetPoint"/>
                        <mxPoint x="300" y="670" as="sourcePoint"/>
                        <Array as="points">
                            <mxPoint x="400" y="670"/>
                            <mxPoint x="400" y="110"/>
                            <mxPoint x="790" y="110"/>
                        </Array>
                    </mxGeometry>
                </mxCell>
                <mxCell id="sWLdKDzeMx4VILPbVC6V-13" value="and so on......." style="edgeLabel;html=1;align=center;verticalAlign=middle;resizable=0;points=[];" parent="sWLdKDzeMx4VILPbVC6V-12" vertex="1" connectable="0">
                    <mxGeometry x="0.5848" y="-2" relative="1" as="geometry">
                        <mxPoint as="offset"/>
                    </mxGeometry>
                </mxCell>
                <mxCell id="sWLdKDzeMx4VILPbVC6V-16" style="edgeStyle=orthogonalEdgeStyle;rounded=0;orthogonalLoop=1;jettySize=auto;html=1;entryX=0;entryY=0.5;entryDx=0;entryDy=0;" parent="G2DLATC6TdOR3cQytXSb-1" source="sWLdKDzeMx4VILPbVC6V-14" target="G2DLATC6TdOR3cQytXSb-4" edge="1">
                    <mxGeometry relative="1" as="geometry"/>
                </mxCell>
                <mxCell id="sWLdKDzeMx4VILPbVC6V-14" value="&lt;font style=&quot;font-size: 18px&quot;&gt;init&lt;br&gt;&lt;/font&gt;" style="rounded=1;whiteSpace=wrap;html=1;absoluteArcSize=1;arcSize=14;strokeWidth=2;fontSize=18;fillColor=#B2C9AB;strokeColor=#788AA3;fontColor=#46495D;labelBorderColor=none;labelBackgroundColor=none;fontStyle=1" parent="G2DLATC6TdOR3cQytXSb-1" vertex="1">
                    <mxGeometry x="10" y="80" width="100" height="70" as="geometry"/>
                </mxCell>
            </root>
        </mxGraphModel>
    </diagram>
    <diagram id="zUE3danoWGrtczNT0pql" name="dep-watcher">
        <mxGraphModel dx="3350" dy="1880" grid="1" gridSize="10" guides="1" tooltips="1" connect="1" arrows="1" fold="1" page="1" pageScale="1" pageWidth="1169" pageHeight="827" math="0" shadow="0">
            <root>
                <mxCell id="PHmEpzpqSccx-iCjoh9v-0"/>
                <mxCell id="PHmEpzpqSccx-iCjoh9v-1" parent="PHmEpzpqSccx-iCjoh9v-0"/>
                <mxCell id="hTSfCt1aQ6T2RVrLYCsh-5" value="" style="edgeStyle=orthogonalEdgeStyle;rounded=0;orthogonalLoop=1;jettySize=auto;html=1;" parent="PHmEpzpqSccx-iCjoh9v-1" target="hTSfCt1aQ6T2RVrLYCsh-4" edge="1">
                    <mxGeometry relative="1" as="geometry">
                        <mxPoint x="340" y="190" as="sourcePoint"/>
                        <Array as="points">
                            <mxPoint x="340" y="110"/>
                        </Array>
                    </mxGeometry>
                </mxCell>
                <mxCell id="hTSfCt1aQ6T2RVrLYCsh-7" value="" style="edgeStyle=orthogonalEdgeStyle;rounded=0;orthogonalLoop=1;jettySize=auto;html=1;" parent="PHmEpzpqSccx-iCjoh9v-1" source="hTSfCt1aQ6T2RVrLYCsh-3" target="hTSfCt1aQ6T2RVrLYCsh-6" edge="1">
                    <mxGeometry relative="1" as="geometry"/>
                </mxCell>
                <mxCell id="hTSfCt1aQ6T2RVrLYCsh-3" value="&lt;font style=&quot;font-size: 18px&quot;&gt;defineReactive&lt;/font&gt;" style="rounded=1;whiteSpace=wrap;html=1;absoluteArcSize=1;arcSize=14;strokeWidth=2;fontSize=18;fillColor=#B2C9AB;strokeColor=#788AA3;fontColor=#46495D;labelBorderColor=none;labelBackgroundColor=none;fontStyle=1" parent="PHmEpzpqSccx-iCjoh9v-1" vertex="1">
                    <mxGeometry x="90" y="90" width="190" height="170" as="geometry"/>
                </mxCell>
                <mxCell id="hTSfCt1aQ6T2RVrLYCsh-11" style="edgeStyle=orthogonalEdgeStyle;rounded=0;orthogonalLoop=1;jettySize=auto;html=1;entryX=0;entryY=0.588;entryDx=0;entryDy=0;entryPerimeter=0;" parent="PHmEpzpqSccx-iCjoh9v-1" source="hTSfCt1aQ6T2RVrLYCsh-4" target="hTSfCt1aQ6T2RVrLYCsh-9" edge="1">
                    <mxGeometry relative="1" as="geometry"/>
                </mxCell>
                <mxCell id="hTSfCt1aQ6T2RVrLYCsh-4" value="getter" style="ellipse;whiteSpace=wrap;html=1;rounded=1;fontSize=18;fontColor=#46495D;fontStyle=1;strokeColor=#788AA3;strokeWidth=2;fillColor=#B2C9AB;arcSize=14;" parent="PHmEpzpqSccx-iCjoh9v-1" vertex="1">
                    <mxGeometry x="400" y="70" width="120" height="80" as="geometry"/>
                </mxCell>
                <mxCell id="hTSfCt1aQ6T2RVrLYCsh-13" style="edgeStyle=orthogonalEdgeStyle;rounded=0;orthogonalLoop=1;jettySize=auto;html=1;entryX=0.5;entryY=1;entryDx=0;entryDy=0;" parent="PHmEpzpqSccx-iCjoh9v-1" source="hTSfCt1aQ6T2RVrLYCsh-6" target="hTSfCt1aQ6T2RVrLYCsh-9" edge="1">
                    <mxGeometry relative="1" as="geometry">
                        <mxPoint x="910" y="330" as="targetPoint"/>
                        <Array as="points">
                            <mxPoint x="790" y="250"/>
                        </Array>
                    </mxGeometry>
                </mxCell>
                <mxCell id="hTSfCt1aQ6T2RVrLYCsh-6" value="setter" style="ellipse;whiteSpace=wrap;html=1;rounded=1;fontSize=18;fontColor=#46495D;fontStyle=1;strokeColor=#788AA3;strokeWidth=2;fillColor=#B2C9AB;arcSize=14;" parent="PHmEpzpqSccx-iCjoh9v-1" vertex="1">
                    <mxGeometry x="400" y="210" width="120" height="80" as="geometry"/>
                </mxCell>
                <mxCell id="hTSfCt1aQ6T2RVrLYCsh-19" value="" style="edgeStyle=orthogonalEdgeStyle;rounded=0;orthogonalLoop=1;jettySize=auto;html=1;" parent="PHmEpzpqSccx-iCjoh9v-1" source="hTSfCt1aQ6T2RVrLYCsh-9" target="hTSfCt1aQ6T2RVrLYCsh-18" edge="1">
                    <mxGeometry relative="1" as="geometry">
                        <Array as="points">
                            <mxPoint x="790" y="90"/>
                            <mxPoint x="790" y="90"/>
                        </Array>
                    </mxGeometry>
                </mxCell>
                <mxCell id="Ja7aPKBhOBdOSWHRe32R-17" value="update" style="edgeLabel;html=1;align=center;verticalAlign=middle;resizable=0;points=[];" parent="hTSfCt1aQ6T2RVrLYCsh-19" vertex="1" connectable="0">
                    <mxGeometry x="-0.075" y="-1" relative="1" as="geometry">
                        <mxPoint as="offset"/>
                    </mxGeometry>
                </mxCell>
                <mxCell id="Ja7aPKBhOBdOSWHRe32R-19" style="edgeStyle=orthogonalEdgeStyle;rounded=0;orthogonalLoop=1;jettySize=auto;html=1;entryX=0;entryY=0.5;entryDx=0;entryDy=0;" parent="PHmEpzpqSccx-iCjoh9v-1" source="hTSfCt1aQ6T2RVrLYCsh-9" target="Ja7aPKBhOBdOSWHRe32R-16" edge="1">
                    <mxGeometry relative="1" as="geometry"/>
                </mxCell>
                <mxCell id="Ja7aPKBhOBdOSWHRe32R-20" value="update" style="edgeLabel;html=1;align=center;verticalAlign=middle;resizable=0;points=[];" parent="Ja7aPKBhOBdOSWHRe32R-19" vertex="1" connectable="0">
                    <mxGeometry x="0.0857" y="-2" relative="1" as="geometry">
                        <mxPoint as="offset"/>
                    </mxGeometry>
                </mxCell>
                <mxCell id="Ja7aPKBhOBdOSWHRe32R-25" style="edgeStyle=orthogonalEdgeStyle;rounded=0;orthogonalLoop=1;jettySize=auto;html=1;entryX=0;entryY=0.5;entryDx=0;entryDy=0;" parent="PHmEpzpqSccx-iCjoh9v-1" target="Ja7aPKBhOBdOSWHRe32R-23" edge="1">
                    <mxGeometry relative="1" as="geometry">
                        <mxPoint x="820" y="173" as="sourcePoint"/>
                        <Array as="points">
                            <mxPoint x="820" y="380"/>
                        </Array>
                    </mxGeometry>
                </mxCell>
                <mxCell id="Ja7aPKBhOBdOSWHRe32R-26" value="update&lt;br&gt;run callback" style="edgeLabel;html=1;align=center;verticalAlign=middle;resizable=0;points=[];" parent="Ja7aPKBhOBdOSWHRe32R-25" vertex="1" connectable="0">
                    <mxGeometry x="0.5908" y="-2" relative="1" as="geometry">
                        <mxPoint as="offset"/>
                    </mxGeometry>
                </mxCell>
                <mxCell id="hTSfCt1aQ6T2RVrLYCsh-9" value="Dep" style="shape=cylinder;whiteSpace=wrap;html=1;boundedLbl=1;backgroundOutline=1;rounded=1;fontSize=18;fontColor=#46495D;fontStyle=1;strokeColor=#788AA3;strokeWidth=2;fillColor=#B2C9AB;arcSize=14;" parent="PHmEpzpqSccx-iCjoh9v-1" vertex="1">
                    <mxGeometry x="760" y="135" width="60" height="75" as="geometry"/>
                </mxCell>
                <mxCell id="hTSfCt1aQ6T2RVrLYCsh-14" value="dep.depend() -&amp;gt; &lt;br&gt;收集 Render/Computed/user Watcher" style="text;html=1;align=center;verticalAlign=middle;resizable=0;points=[];autosize=1;" parent="PHmEpzpqSccx-iCjoh9v-1" vertex="1">
                    <mxGeometry x="535" y="75" width="220" height="30" as="geometry"/>
                </mxCell>
                <mxCell id="hTSfCt1aQ6T2RVrLYCsh-15" value="dep.notify() -&amp;gt; &lt;br&gt;触发调用 Render/Computed/user Watcher" style="text;html=1;align=center;verticalAlign=middle;resizable=0;points=[];autosize=1;" parent="PHmEpzpqSccx-iCjoh9v-1" vertex="1">
                    <mxGeometry x="525" y="255" width="240" height="30" as="geometry"/>
                </mxCell>
                <mxCell id="hTSfCt1aQ6T2RVrLYCsh-20" style="edgeStyle=orthogonalEdgeStyle;rounded=0;orthogonalLoop=1;jettySize=auto;html=1;entryX=0.5;entryY=0;entryDx=0;entryDy=0;" parent="PHmEpzpqSccx-iCjoh9v-1" source="hTSfCt1aQ6T2RVrLYCsh-18" target="hTSfCt1aQ6T2RVrLYCsh-4" edge="1">
                    <mxGeometry relative="1" as="geometry">
                        <Array as="points">
                            <mxPoint x="460" y="15"/>
                        </Array>
                    </mxGeometry>
                </mxCell>
                <mxCell id="hTSfCt1aQ6T2RVrLYCsh-18" value="Render Watcher" style="shape=hexagon;perimeter=hexagonPerimeter2;whiteSpace=wrap;html=1;fixedSize=1;rounded=1;fontSize=18;fontColor=#46495D;fontStyle=1;strokeColor=#788AA3;strokeWidth=2;fillColor=#B2C9AB;arcSize=14;" parent="PHmEpzpqSccx-iCjoh9v-1" vertex="1">
                    <mxGeometry x="730" y="-25" width="120" height="80" as="geometry"/>
                </mxCell>
                <mxCell id="hTSfCt1aQ6T2RVrLYCsh-21" value="watcher 调用 updateComponent -&amp;gt; render -&amp;gt; trigger getter&lt;br&gt;&amp;nbsp;1. 初始化 updateComponent&amp;nbsp;&lt;br&gt;2. dep.notify updateComponent" style="text;html=1;align=center;verticalAlign=middle;resizable=0;points=[];autosize=1;rotation=0;" parent="PHmEpzpqSccx-iCjoh9v-1" vertex="1">
                    <mxGeometry x="430" y="-40" width="330" height="50" as="geometry"/>
                </mxCell>
                <mxCell id="Ja7aPKBhOBdOSWHRe32R-2" style="edgeStyle=orthogonalEdgeStyle;rounded=0;orthogonalLoop=1;jettySize=auto;html=1;" parent="PHmEpzpqSccx-iCjoh9v-1" source="Ja7aPKBhOBdOSWHRe32R-0" target="hTSfCt1aQ6T2RVrLYCsh-18" edge="1">
                    <mxGeometry relative="1" as="geometry"/>
                </mxCell>
                <mxCell id="Ja7aPKBhOBdOSWHRe32R-0" value="mounted" style="rhombus;whiteSpace=wrap;html=1;rounded=1;fontSize=18;fontColor=#46495D;fontStyle=1;strokeColor=#788AA3;strokeWidth=2;fillColor=#B2C9AB;arcSize=14;" parent="PHmEpzpqSccx-iCjoh9v-1" vertex="1">
                    <mxGeometry x="725" y="-230" width="130" height="80" as="geometry"/>
                </mxCell>
                <mxCell id="Ja7aPKBhOBdOSWHRe32R-3" value="实例化 Watcher" style="text;html=1;align=center;verticalAlign=middle;resizable=0;points=[];autosize=1;" parent="PHmEpzpqSccx-iCjoh9v-1" vertex="1">
                    <mxGeometry x="790" y="-100" width="100" height="20" as="geometry"/>
                </mxCell>
                <mxCell id="Ja7aPKBhOBdOSWHRe32R-34" style="edgeStyle=orthogonalEdgeStyle;rounded=0;orthogonalLoop=1;jettySize=auto;html=1;" parent="PHmEpzpqSccx-iCjoh9v-1" source="Ja7aPKBhOBdOSWHRe32R-16" edge="1">
                    <mxGeometry relative="1" as="geometry">
                        <mxPoint x="479" y="70" as="targetPoint"/>
                        <Array as="points">
                            <mxPoint x="990" y="-270"/>
                            <mxPoint x="480" y="-270"/>
                        </Array>
                    </mxGeometry>
                </mxCell>
                <mxCell id="Ja7aPKBhOBdOSWHRe32R-16" value="computed watcher" style="shape=hexagon;perimeter=hexagonPerimeter2;whiteSpace=wrap;html=1;fixedSize=1;rounded=1;fontSize=18;fontColor=#46495D;fontStyle=1;strokeColor=#788AA3;strokeWidth=2;fillColor=#B2C9AB;arcSize=14;" parent="PHmEpzpqSccx-iCjoh9v-1" vertex="1">
                    <mxGeometry x="930" y="135" width="120" height="80" as="geometry"/>
                </mxCell>
                <mxCell id="Ja7aPKBhOBdOSWHRe32R-21" value="dep 收集 computed watcher" style="text;html=1;align=center;verticalAlign=middle;resizable=0;points=[];autosize=1;" parent="PHmEpzpqSccx-iCjoh9v-1" vertex="1">
                    <mxGeometry x="915" y="220" width="160" height="20" as="geometry"/>
                </mxCell>
                <mxCell id="Ja7aPKBhOBdOSWHRe32R-22" value="update watcher.value" style="text;html=1;align=center;verticalAlign=middle;resizable=0;points=[];autosize=1;" parent="PHmEpzpqSccx-iCjoh9v-1" vertex="1">
                    <mxGeometry x="930" y="240" width="130" height="20" as="geometry"/>
                </mxCell>
                <mxCell id="Ja7aPKBhOBdOSWHRe32R-35" style="edgeStyle=orthogonalEdgeStyle;rounded=0;orthogonalLoop=1;jettySize=auto;html=1;entryX=0.333;entryY=0;entryDx=0;entryDy=0;entryPerimeter=0;" parent="PHmEpzpqSccx-iCjoh9v-1" source="Ja7aPKBhOBdOSWHRe32R-23" target="hTSfCt1aQ6T2RVrLYCsh-4" edge="1">
                    <mxGeometry relative="1" as="geometry">
                        <mxPoint x="440" y="-322" as="targetPoint"/>
                        <Array as="points">
                            <mxPoint x="1080" y="380"/>
                            <mxPoint x="1080" y="-322"/>
                            <mxPoint x="440" y="-322"/>
                        </Array>
                    </mxGeometry>
                </mxCell>
                <mxCell id="Ja7aPKBhOBdOSWHRe32R-23" value="user watcher" style="shape=hexagon;perimeter=hexagonPerimeter2;whiteSpace=wrap;html=1;fixedSize=1;rounded=1;fontSize=18;fontColor=#46495D;fontStyle=1;strokeColor=#788AA3;strokeWidth=2;fillColor=#B2C9AB;arcSize=14;" parent="PHmEpzpqSccx-iCjoh9v-1" vertex="1">
                    <mxGeometry x="940" y="340" width="120" height="80" as="geometry"/>
                </mxCell>
                <mxCell id="Ja7aPKBhOBdOSWHRe32R-36" value="初始化 initComputed evaluate watcher value 访问 getter" style="text;html=1;align=center;verticalAlign=middle;resizable=0;points=[];autosize=1;" parent="PHmEpzpqSccx-iCjoh9v-1" vertex="1">
                    <mxGeometry x="560" y="-270" width="310" height="20" as="geometry"/>
                </mxCell>
                <mxCell id="Ja7aPKBhOBdOSWHRe32R-37" value="初始化 initWatcher 直接访问 value getter" style="text;html=1;align=center;verticalAlign=middle;resizable=0;points=[];autosize=1;" parent="PHmEpzpqSccx-iCjoh9v-1" vertex="1">
                    <mxGeometry x="585" y="-320" width="230" height="20" as="geometry"/>
                </mxCell>
            </root>
        </mxGraphModel>
    </diagram>
</mxfile>